<svg width="34" height="34" viewBox="0 0 34 34" fill="none" xmlns="http://www.w3.org/2000/svg">
<path d="M17 0C26.3888 0 34 7.61116 34 17C34 26.3888 26.3888 34 17 34C7.61116 34 0 26.3888 0 17C0 7.61116 7.61116 0 17 0ZM17.0371 11.7246C16.6499 11.7246 16.3262 12.0353 16.3262 12.4072V16.1445H12.4355C12.0485 16.1445 11.7249 16.4554 11.7246 16.8271C11.7246 17.2052 12.0484 17.5107 12.4355 17.5107H16.3262V21.248C16.3262 21.62 16.6499 21.9307 17.0371 21.9307C17.4242 21.9306 17.748 21.6199 17.748 21.248V17.5107H21.6387C22.0258 17.5107 22.3496 17.2052 22.3496 16.8271C22.3494 16.4554 22.0257 16.1445 21.6387 16.1445H17.748V12.4072C17.748 12.0353 17.4242 11.7246 17.0371 11.7246Z" fill="#33CF69"/>
</svg>
